<svg width="24" height="24" viewBox="0 0 24 24" fill="none" xmlns="http://www.w3.org/2000/svg">
<path fill-rule="evenodd" clip-rule="evenodd" d="M13.0423 2.63673C12.4024 2.24609 11.5978 2.24609 10.9579 2.63673L4.84895 6.36637C3.5594 7.15366 3.57497 9.03164 4.8774 9.79744L11.0093 13.4029C11.6364 13.7716 12.4143 13.7708 13.0406 13.4006L19.1339 9.79957C20.4329 9.03186 20.4463 7.15704 19.1585 6.37077L13.0423 2.63673ZM19.6032 11.4714C20.0833 11.1985 20.6938 11.3666 20.9666 11.8467C21.22 12.2926 21.0932 12.8508 20.6894 13.1468L20.5913 13.2102L13.9967 16.9576C13.167 17.4334 12.1543 17.4662 11.2965 17.054L11.1151 16.9588L4.59833 13.2075C4.11968 12.9319 3.95503 12.3205 4.23056 11.8419C4.48641 11.3974 5.03184 11.2237 5.49169 11.4218L5.59612 11.4741L12.1095 15.2236C12.3498 15.3606 12.6429 15.3775 12.8983 15.2729L13.0053 15.2207L19.6032 11.4714ZM19.5062 15.1312C19.9864 14.8584 20.5968 15.0264 20.8697 15.5066C21.1231 15.9525 20.9963 16.5107 20.5924 16.8066L20.4943 16.8701L13.8998 20.6175C13.07 21.0933 12.0573 21.126 11.1995 20.7138L11.0182 20.6187L4.50137 16.8673C4.02273 16.5918 3.85807 15.9804 4.1336 15.5018C4.38945 15.0573 4.93489 14.8836 5.39473 15.0816L5.49916 15.134L12.0126 18.8834C12.2528 19.0205 12.5459 19.0373 12.8014 18.9328L12.9083 18.8806L19.5062 15.1312Z" fill="#7D8592"/>
</svg>
